<svg xmlns="http://www.w3.org/2000/svg" width="1200" height="980" viewBox="0 0 1200 980">
<defs><marker id="arrow" markerWidth="10" markerHeight="10" refX="8" refY="3" orient="auto"><path d="M0,0 L0,6 L9,3 z" fill="context-stroke"/></marker><filter id="shadow" x="-20%" y="-20%" width="140%" height="140%"><feDropShadow dx="0" dy="2" stdDeviation="3" flood-opacity=".14"/></filter></defs>
<rect width="100%" height="100%" fill="#ffffff"/>
<text x="55" y="61" text-anchor="start" font-family="Inter,Arial,sans-serif" font-size="32" fill="#111827"><tspan x="55" dy="0">Local and remote deployment</tspan></text>
<text x="55" y="99" text-anchor="start" font-family="Inter,Arial,sans-serif" font-size="18" fill="#64748b"><tspan x="55" dy="0">Both modes use the same actor/learner protocol and durability; remote mode adds an encrypted tunnel because</tspan><tspan x="55" dy="22.5">the bearer token does not encrypt traffic.</tspan></text>
<rect x="40" y="150" width="520" height="315" rx="14" fill="#dcfce7" fill-opacity=".35" stroke="#2b8a3e" stroke-width="1.5" stroke-dasharray="8 7"/>
<text x="58" y="179" text-anchor="start" font-family="Inter,Arial,sans-serif" font-size="19" fill="#2b8a3e"><tspan x="58" dy="0">Local train · one Windows host</tspan></text>
<rect x="590" y="150" width="570" height="315" rx="14" fill="#dbeafe" fill-opacity=".35" stroke="#1864ab" stroke-width="1.5" stroke-dasharray="8 7"/>
<text x="608" y="179" text-anchor="start" font-family="Inter,Arial,sans-serif" font-size="19" fill="#1864ab"><tspan x="608" dy="0">Remote actor · separate Trackmania host</tspan></text>
<rect x="40" y="495" width="1120" height="300" rx="14" fill="#ede9fe" fill-opacity=".35" stroke="#7048e8" stroke-width="1.5" stroke-dasharray="8 7"/>
<text x="58" y="524" text-anchor="start" font-family="Inter,Arial,sans-serif" font-size="19" fill="#7048e8"><tspan x="58" dy="0">Shared learner runtime</tspan></text>
<polyline points="270,267.5 330,267.5" fill="none" stroke="#2b8a3e" stroke-width="2.5" marker-end="url(#arrow)"/>
<rect x="212.0" y="227.5" width="176" height="25" rx="5" fill="#ffffff" fill-opacity=".92"/>
<text x="300.0" y="244.5" text-anchor="middle" font-family="Inter,Arial,sans-serif" font-size="18" fill="#2b8a3e"><tspan x="300.0" dy="0">spawn</tspan></text>
<polyline points="170,315 170,395 200,395" fill="none" stroke="#7048e8" stroke-width="2.5" marker-end="url(#arrow)"/>
<polyline points="430,315 430,330 300,330 300,350" fill="none" stroke="#2b8a3e" stroke-width="2.5" marker-end="url(#arrow)"/>
<rect x="277" y="308" width="176" height="25" rx="5" fill="#ffffff" fill-opacity=".92"/>
<text x="365.0" y="325" text-anchor="middle" font-family="Inter,Arial,sans-serif" font-size="18" fill="#2b8a3e"><tspan x="365.0" dy="0">rollouts</tspan></text>
<polyline points="800,267.5 820,267.5" fill="none" stroke="#1864ab" stroke-width="2.5" marker-end="url(#arrow)"/>
<polyline points="980,267.5 1000,267.5" fill="none" stroke="#1864ab" stroke-width="2.5" marker-end="url(#arrow)"/>
<polyline points="710,315 710,395 780,395" fill="none" stroke="#c92a2a" stroke-width="2.5" marker-end="url(#arrow)"/>
<polyline points="1065,315 1065,395 1040,395" fill="none" stroke="#c92a2a" stroke-width="2.5" marker-end="url(#arrow)"/>
<polyline points="300,440 300,475 20,475 20,622 75,622" fill="none" stroke="#7048e8" stroke-width="2.5" marker-end="url(#arrow)"/>
<polyline points="780,395 575,395 575,470 20,470 20,622 75,622" fill="none" stroke="#1864ab" stroke-width="2.5" marker-end="url(#arrow)"/>
<polyline points="315,622.5 350,622.5" fill="none" stroke="#c92a2a" stroke-width="2.5" marker-end="url(#arrow)"/>
<polyline points="590,622.5 625,622.5" fill="none" stroke="#d97706" stroke-width="2.5" marker-end="url(#arrow)"/>
<polyline points="865,622.5 900,622.5" fill="none" stroke="#7048e8" stroke-width="2.5" marker-end="url(#arrow)"/>
<rect x="70" y="220" width="200" height="95" rx="12" fill="#dcfce7" stroke="#2b8a3e" stroke-width="2.5" filter="url(#shadow)"/>
<text x="170.0" y="250.0" text-anchor="middle" font-family="Inter,Arial,sans-serif" font-size="20" fill="#111827"><tspan x="170.0" dy="0">CLI launcher</tspan></text>
<text x="170.0" y="278.0" text-anchor="middle" font-family="Inter,Arial,sans-serif" font-size="18" fill="#475569"><tspan x="170.0" dy="0">multiprocessing</tspan><tspan x="170.0" dy="22.5">spawn</tspan></text>
<rect x="330" y="220" width="200" height="95" rx="12" fill="#dcfce7" stroke="#2b8a3e" stroke-width="2.5" filter="url(#shadow)"/>
<text x="430.0" y="250.0" text-anchor="middle" font-family="Inter,Arial,sans-serif" font-size="20" fill="#111827"><tspan x="430.0" dy="0">Actor process</tspan></text>
<text x="430.0" y="278.0" text-anchor="middle" font-family="Inter,Arial,sans-serif" font-size="18" fill="#475569"><tspan x="430.0" dy="0">game · policy ·</tspan><tspan x="430.0" dy="22.5">spool</tspan></text>
<rect x="200" y="350" width="200" height="90" rx="12" fill="#ede9fe" stroke="#7048e8" stroke-width="2.5" filter="url(#shadow)"/>
<text x="300.0" y="388.75" text-anchor="middle" font-family="Inter,Arial,sans-serif" font-size="20" fill="#111827"><tspan x="300.0" dy="0">Learner process</tspan></text>
<text x="300.0" y="416.75" text-anchor="middle" font-family="Inter,Arial,sans-serif" font-size="18" fill="#475569"><tspan x="300.0" dy="0">loopback gRPC</tspan></text>
<rect x="620" y="220" width="180" height="95" rx="12" fill="#dcfce7" stroke="#2b8a3e" stroke-width="2.5" filter="url(#shadow)"/>
<text x="710.0" y="261.25" text-anchor="middle" font-family="Inter,Arial,sans-serif" font-size="20" fill="#111827"><tspan x="710.0" dy="0">Actor + spool</tspan></text>
<text x="710.0" y="289.25" text-anchor="middle" font-family="Inter,Arial,sans-serif" font-size="18" fill="#475569"><tspan x="710.0" dy="0">stable actor ID</tspan></text>
<rect x="820" y="220" width="160" height="95" rx="12" fill="#dbeafe" stroke="#1864ab" stroke-width="2.5" filter="url(#shadow)"/>
<text x="900.0" y="250.0" text-anchor="middle" font-family="Inter,Arial,sans-serif" font-size="20" fill="#111827"><tspan x="900.0" dy="0">SSH or VPN</tspan></text>
<text x="900.0" y="278.0" text-anchor="middle" font-family="Inter,Arial,sans-serif" font-size="18" fill="#475569"><tspan x="900.0" dy="0">authenticated</tspan><tspan x="900.0" dy="22.5">encryption</tspan></text>
<rect x="1000" y="220" width="130" height="95" rx="12" fill="#fee2e2" stroke="#c92a2a" stroke-width="2.5" filter="url(#shadow)"/>
<text x="1065.0" y="247" text-anchor="middle" font-family="Inter,Arial,sans-serif" font-size="20" fill="#111827"><tspan x="1065.0" dy="0">Loopback</tspan><tspan x="1065.0" dy="25.0">port</tspan></text>
<text x="1065.0" y="300" text-anchor="middle" font-family="Inter,Arial,sans-serif" font-size="18" fill="#475569"><tspan x="1065.0" dy="0">SSH/VPN</tspan><tspan x="1065.0" dy="22.5">forward</tspan></text>
<rect x="780" y="350" width="260" height="90" rx="12" fill="#fee2e2" stroke="#c92a2a" stroke-width="2.5" filter="url(#shadow)"/>
<text x="910.0" y="377.5" text-anchor="middle" font-family="Inter,Arial,sans-serif" font-size="20" fill="#111827"><tspan x="910.0" dy="0">Same run identity</tspan></text>
<text x="910.0" y="405.5" text-anchor="middle" font-family="Inter,Arial,sans-serif" font-size="18" fill="#475569"><tspan x="910.0" dy="0">token · fingerprint ·</tspan><tspan x="910.0" dy="22.5">map · contracts</tspan></text>
<rect x="75" y="570" width="240" height="105" rx="12" fill="#fee2e2" stroke="#c92a2a" stroke-width="2.5" filter="url(#shadow)"/>
<text x="195.0" y="597" text-anchor="middle" font-family="Inter,Arial,sans-serif" font-size="20" fill="#111827"><tspan x="195.0" dy="0">Coordinator</tspan><tspan x="195.0" dy="25.0">endpoint</tspan></text>
<text x="195.0" y="650" text-anchor="middle" font-family="Inter,Arial,sans-serif" font-size="18" fill="#475569"><tspan x="195.0" dy="0">bounded authenticated</tspan><tspan x="195.0" dy="22.5">requests</tspan></text>
<rect x="350" y="570" width="240" height="105" rx="12" fill="#ffedd5" stroke="#d97706" stroke-width="2.5" filter="url(#shadow)"/>
<text x="470.0" y="603.75" text-anchor="middle" font-family="Inter,Arial,sans-serif" font-size="20" fill="#111827"><tspan x="470.0" dy="0">WAL + applied</tspan><tspan x="470.0" dy="25.0">frontier</tspan></text>
<text x="470.0" y="656.75" text-anchor="middle" font-family="Inter,Arial,sans-serif" font-size="18" fill="#475569"><tspan x="470.0" dy="0">persist before ACK</tspan></text>
<rect x="625" y="570" width="240" height="105" rx="12" fill="#ede9fe" stroke="#7048e8" stroke-width="2.5" filter="url(#shadow)"/>
<text x="745.0" y="605.0" text-anchor="middle" font-family="Inter,Arial,sans-serif" font-size="20" fill="#111827"><tspan x="745.0" dy="0">Replay + learner</tspan></text>
<text x="745.0" y="633.0" text-anchor="middle" font-family="Inter,Arial,sans-serif" font-size="18" fill="#475569"><tspan x="745.0" dy="0">sample · update ·</tspan><tspan x="745.0" dy="22.5">evaluate</tspan></text>
<rect x="900" y="570" width="220" height="105" rx="12" fill="#dbeafe" stroke="#1864ab" stroke-width="2.5" filter="url(#shadow)"/>
<text x="1010.0" y="605.0" text-anchor="middle" font-family="Inter,Arial,sans-serif" font-size="20" fill="#111827"><tspan x="1010.0" dy="0">Portable outputs</tspan></text>
<text x="1010.0" y="633.0" text-anchor="middle" font-family="Inter,Arial,sans-serif" font-size="18" fill="#475569"><tspan x="1010.0" dy="0">policy snapshot ·</tspan><tspan x="1010.0" dy="22.5">checkpoint</tspan></text>
<rect x="80" y="825" width="1040" height="60" rx="10" fill="#dcfce7" stroke="#2b8a3e" stroke-width="1.5"/>
<text x="94" y="856" text-anchor="start" font-family="Inter,Arial,sans-serif" font-size="18" fill="#1f2937"><tspan x="94" dy="0">Local does not mean in-process: actor and learner are separate spawn-safe processes, and failures must</tspan><tspan x="94" dy="22.5">propagate to the launcher.</tspan></text>
<rect x="80" y="905" width="1040" height="60" rx="10" fill="#fee2e2" stroke="#c92a2a" stroke-width="1.5"/>
<text x="94" y="936" text-anchor="start" font-family="Inter,Arial,sans-serif" font-size="18" fill="#1f2937"><tspan x="94" dy="0">Never expose gRPC directly. Keep the learner on literal loopback and carry it through an authenticated</tspan><tspan x="94" dy="22.5">encrypted tunnel.</tspan></text>
</svg>
