<svg xmlns="http://www.w3.org/2000/svg" width="1700" height="1150" viewBox="0 0 1700 1150">
<defs><marker id="arrow" markerWidth="10" markerHeight="10" refX="8" refY="3" orient="auto"><path d="M0,0 L0,6 L9,3 z" fill="context-stroke"/></marker><filter id="shadow" x="-20%" y="-20%" width="140%" height="140%"><feDropShadow dx="0" dy="2" stdDeviation="3" flood-opacity=".14"/></filter></defs>
<rect width="100%" height="100%" fill="#ffffff"/>
<text x="55" y="61" text-anchor="start" font-family="Inter,Arial,sans-serif" font-size="32" fill="#111827"><tspan x="55" dy="0">Recurrent replay sequence, n-step target and PER feedback</tspan></text>
<text x="55" y="99" text-anchor="start" font-family="Inter,Arial,sans-serif" font-size="18" fill="#64748b"><tspan x="55" dy="0">A sampled anchor is eligible only when its full episode-local history and n-step horizon are available; burn-in is context, not a loss region.</tspan></text>
<rect x="45" y="130" width="400" height="750" rx="14" fill="#dbeafe" fill-opacity=".35" stroke="#1864ab" stroke-width="1.5" stroke-dasharray="8 7"/>
<text x="63" y="159" text-anchor="start" font-family="Inter,Arial,sans-serif" font-size="19" fill="#1864ab"><tspan x="63" dy="0">Replay eligibility</tspan></text>
<rect x="470" y="130" width="520" height="750" rx="14" fill="#dcfce7" fill-opacity=".35" stroke="#2b8a3e" stroke-width="1.5" stroke-dasharray="8 7"/>
<text x="488" y="159" text-anchor="start" font-family="Inter,Arial,sans-serif" font-size="19" fill="#2b8a3e"><tspan x="488" dy="0">Sequence unroll</tspan></text>
<rect x="1015" y="130" width="300" height="750" rx="14" fill="#ede9fe" fill-opacity=".35" stroke="#7048e8" stroke-width="1.5" stroke-dasharray="8 7"/>
<text x="1033" y="159" text-anchor="start" font-family="Inter,Arial,sans-serif" font-size="19" fill="#7048e8"><tspan x="1033" dy="0">Value target</tspan></text>
<rect x="1340" y="130" width="315" height="750" rx="14" fill="#ffedd5" fill-opacity=".35" stroke="#d97706" stroke-width="1.5" stroke-dasharray="8 7"/>
<text x="1358" y="159" text-anchor="start" font-family="Inter,Arial,sans-serif" font-size="19" fill="#d97706"><tspan x="1358" dy="0">Prioritized replay</tspan><tspan x="1358" dy="23.75">feedback</tspan></text>
<polyline points="245,295 245,380" fill="none" stroke="#475569" stroke-width="2.5" marker-end="url(#arrow)"/>
<polyline points="245,495 245,585" fill="none" stroke="#c92a2a" stroke-width="2.5" marker-end="url(#arrow)"/>
<polyline points="405,642 455,642 455,340 730,340 730,295" fill="none" stroke="#1864ab" stroke-width="2.5" marker-end="url(#arrow)"/>
<rect x="487" y="318" width="176" height="25" rx="5" fill="#ffffff" fill-opacity=".92"/>
<text x="575.0" y="335" text-anchor="middle" font-family="Inter,Arial,sans-serif" font-size="18" fill="#1864ab"><tspan x="575.0" dy="0">sample history</tspan></text>
<polyline points="405,805 480,805 480,915 732,915 732,855" fill="none" stroke="#d97706" stroke-width="2.5" marker-end="url(#arrow)"/>
<polyline points="620,295 620,385" fill="none" stroke="#475569" stroke-width="2.5" marker-end="url(#arrow)"/>
<polyline points="840,295 840,385" fill="none" stroke="#2b8a3e" stroke-width="2.5" marker-end="url(#arrow)"/>
<polyline points="715,445.0 745,445.0" fill="none" stroke="#475569" stroke-width="2.5" marker-end="url(#arrow)"/>
<rect x="642.0" y="405.0" width="176" height="25" rx="5" fill="#ffffff" fill-opacity=".92"/>
<text x="730.0" y="422.0" text-anchor="middle" font-family="Inter,Arial,sans-serif" font-size="18" fill="#475569"><tspan x="730.0" dy="0">hidden state</tspan></text>
<polyline points="612,610 612,560 847,560 847,505" fill="none" stroke="#1864ab" stroke-width="2.5" marker-end="url(#arrow)"/>
<polyline points="950,662 995,662 995,497 1045,497" fill="none" stroke="#7048e8" stroke-width="2.5" marker-end="url(#arrow)"/>
<polyline points="950,445 990,445 990,497 1045,497" fill="none" stroke="#2b8a3e" stroke-width="2.5" marker-end="url(#arrow)"/>
<polyline points="1165,325 1165,425" fill="none" stroke="#087f8c" stroke-width="2.5" marker-end="url(#arrow)"/>
<polyline points="1165,690 1165,570" fill="none" stroke="#c92a2a" stroke-width="2.5" marker-end="url(#arrow)"/>
<polyline points="1045,497 1000,497 1000,915 732,915 732,855" fill="none" stroke="#7048e8" stroke-width="2.5" marker-end="url(#arrow)"/>
<polyline points="840,817 1010,817 1010,350 1345,350 1345,260 1375,260" fill="none" stroke="#c92a2a" stroke-width="2.5" marker-end="url(#arrow)"/>
<polyline points="1497,315 1497,405" fill="none" stroke="#c92a2a" stroke-width="2.5" marker-end="url(#arrow)"/>
<polyline points="1497,540 1497,630" fill="none" stroke="#d97706" stroke-width="2.5" marker-end="url(#arrow)"/>
<polyline points="1497,750 1497,760" fill="none" stroke="#2b8a3e" stroke-width="2.5" marker-end="url(#arrow)"/>
<polyline points="1497,870 1497,945 60,945 60,805 85,805" fill="none" stroke="#d97706" stroke-width="2.5" stroke-dasharray="8 7" marker-end="url(#arrow)"/>
<rect x="687" y="923" width="176" height="25" rx="5" fill="#ffffff" fill-opacity=".92"/>
<text x="775.0" y="940" text-anchor="middle" font-family="Inter,Arial,sans-serif" font-size="18" fill="#d97706"><tspan x="775.0" dy="0">next sampled</tspan><tspan x="775.0" dy="22.5">batch</tspan></text>
<rect x="85" y="190" width="320" height="105" rx="12" fill="#f1f5f9" stroke="#475569" stroke-width="2.5" filter="url(#shadow)"/>
<text x="245.0" y="236.25" text-anchor="middle" font-family="Inter,Arial,sans-serif" font-size="20" fill="#111827"><tspan x="245.0" dy="0">Replay transitions</tspan></text>
<text x="245.0" y="264.25" text-anchor="middle" font-family="Inter,Arial,sans-serif" font-size="18" fill="#475569"><tspan x="245.0" dy="0">interleaved actor IDs</tspan></text>
<rect x="85" y="380" width="320" height="115" rx="12" fill="#fee2e2" stroke="#c92a2a" stroke-width="2.5" filter="url(#shadow)"/>
<text x="245.0" y="420.0" text-anchor="middle" font-family="Inter,Arial,sans-serif" font-size="20" fill="#111827"><tspan x="245.0" dy="0">Episode-local chain</tspan></text>
<text x="245.0" y="448.0" text-anchor="middle" font-family="Inter,Arial,sans-serif" font-size="18" fill="#475569"><tspan x="245.0" dy="0">same episode + step</tspan><tspan x="245.0" dy="22.5">no boundary crossing</tspan></text>
<rect x="85" y="585" width="320" height="115" rx="12" fill="#dbeafe" stroke="#1864ab" stroke-width="2.5" filter="url(#shadow)"/>
<text x="245.0" y="625.0" text-anchor="middle" font-family="Inter,Arial,sans-serif" font-size="20" fill="#111827"><tspan x="245.0" dy="0">Eligible anchor</tspan></text>
<text x="245.0" y="653.0" text-anchor="middle" font-family="Inter,Arial,sans-serif" font-size="18" fill="#475569"><tspan x="245.0" dy="0">L unique history IDs +</tspan><tspan x="245.0" dy="22.5">complete n-step horizon</tspan></text>
<rect x="85" y="760" width="320" height="90" rx="12" fill="#ffedd5" stroke="#d97706" stroke-width="2.5" filter="url(#shadow)"/>
<text x="245.0" y="798.75" text-anchor="middle" font-family="Inter,Arial,sans-serif" font-size="20" fill="#111827"><tspan x="245.0" dy="0">Sampled anchor weight</tspan></text>
<text x="245.0" y="826.75" text-anchor="middle" font-family="Inter,Arial,sans-serif" font-size="18" fill="#475569"><tspan x="245.0" dy="0">normalized IS weight</tspan></text>
<rect x="510" y="190" width="440" height="105" rx="12" fill="#dcfce7" stroke="#2b8a3e" stroke-width="2.5" filter="url(#shadow)"/>
<text x="730.0" y="236.25" text-anchor="middle" font-family="Inter,Arial,sans-serif" font-size="20" fill="#111827"><tspan x="730.0" dy="0">Sequence window</tspan></text>
<text x="730.0" y="264.25" text-anchor="middle" font-family="Inter,Arial,sans-serif" font-size="18" fill="#475569"><tspan x="730.0" dy="0">t0 … tL−1; priority anchor = tL−1</tspan></text>
<rect x="510" y="385" width="205" height="120" rx="12" fill="#f1f5f9" stroke="#475569" stroke-width="2.5" filter="url(#shadow)"/>
<text x="612.5" y="427.5" text-anchor="middle" font-family="Inter,Arial,sans-serif" font-size="20" fill="#111827"><tspan x="612.5" dy="0">Burn-in [0, B)</tspan></text>
<text x="612.5" y="455.5" text-anchor="middle" font-family="Inter,Arial,sans-serif" font-size="18" fill="#475569"><tspan x="612.5" dy="0">state update only</tspan><tspan x="612.5" dy="22.5">detached gradient</tspan></text>
<rect x="745" y="385" width="205" height="120" rx="12" fill="#cffafe" stroke="#087f8c" stroke-width="2.5" filter="url(#shadow)"/>
<text x="847.5" y="415.0" text-anchor="middle" font-family="Inter,Arial,sans-serif" font-size="20" fill="#111827"><tspan x="847.5" dy="0">Learning</tspan><tspan x="847.5" dy="25.0">positions</tspan></text>
<text x="847.5" y="468.0" text-anchor="middle" font-family="Inter,Arial,sans-serif" font-size="18" fill="#475569"><tspan x="847.5" dy="0">B … L−n−1 plus</tspan><tspan x="847.5" dy="22.5">final anchor</tspan></text>
<rect x="510" y="610" width="205" height="105" rx="12" fill="#dbeafe" stroke="#1864ab" stroke-width="2.5" filter="url(#shadow)"/>
<text x="612.5" y="645.0" text-anchor="middle" font-family="Inter,Arial,sans-serif" font-size="20" fill="#111827"><tspan x="612.5" dy="0">Validity mask</tspan></text>
<text x="612.5" y="673.0" text-anchor="middle" font-family="Inter,Arial,sans-serif" font-size="18" fill="#475569"><tspan x="612.5" dy="0">valid loss</tspan><tspan x="612.5" dy="22.5">positions only</tspan></text>
<rect x="745" y="610" width="205" height="105" rx="12" fill="#ede9fe" stroke="#7048e8" stroke-width="2.5" filter="url(#shadow)"/>
<text x="847.5" y="645.0" text-anchor="middle" font-family="Inter,Arial,sans-serif" font-size="20" fill="#111827"><tspan x="847.5" dy="0">Target history</tspan></text>
<text x="847.5" y="673.0" text-anchor="middle" font-family="Inter,Arial,sans-serif" font-size="18" fill="#475569"><tspan x="847.5" dy="0">next window keeps</tspan><tspan x="847.5" dy="22.5">context</tspan></text>
<rect x="625" y="765" width="215" height="90" rx="12" fill="#dcfce7" stroke="#2b8a3e" stroke-width="2.5" filter="url(#shadow)"/>
<text x="732.5" y="792.5" text-anchor="middle" font-family="Inter,Arial,sans-serif" font-size="20" fill="#111827"><tspan x="732.5" dy="0">Per-position loss</tspan></text>
<text x="732.5" y="820.5" text-anchor="middle" font-family="Inter,Arial,sans-serif" font-size="18" fill="#475569"><tspan x="732.5" dy="0">value regression</tspan><tspan x="732.5" dy="22.5">per valid position</tspan></text>
<rect x="1045" y="210" width="240" height="115" rx="12" fill="#cffafe" stroke="#087f8c" stroke-width="2.5" filter="url(#shadow)"/>
<text x="1165.0" y="250.0" text-anchor="middle" font-family="Inter,Arial,sans-serif" font-size="20" fill="#111827"><tspan x="1165.0" dy="0">Double-Q bootstrap</tspan></text>
<text x="1165.0" y="278.0" text-anchor="middle" font-family="Inter,Arial,sans-serif" font-size="18" fill="#475569"><tspan x="1165.0" dy="0">online selects</tspan><tspan x="1165.0" dy="22.5">target evaluates</tspan></text>
<rect x="1045" y="425" width="240" height="145" rx="12" fill="#ede9fe" stroke="#7048e8" stroke-width="2.5" filter="url(#shadow)"/>
<text x="1165.0" y="480.0" text-anchor="middle" font-family="Inter,Arial,sans-serif" font-size="20" fill="#111827"><tspan x="1165.0" dy="0">n-step target</tspan></text>
<text x="1165.0" y="508.0" text-anchor="middle" font-family="Inter,Arial,sans-serif" font-size="18" fill="#475569"><tspan x="1165.0" dy="0">Gₜ = Σ γⁱ rₜ₊ᵢ + γᵏ</tspan><tspan x="1165.0" dy="22.5">Qtarget(sₜ₊ₖ)</tspan></text>
<rect x="1045" y="690" width="240" height="115" rx="12" fill="#fee2e2" stroke="#c92a2a" stroke-width="2.5" filter="url(#shadow)"/>
<text x="1165.0" y="730.0" text-anchor="middle" font-family="Inter,Arial,sans-serif" font-size="20" fill="#111827"><tspan x="1165.0" dy="0">Bootstrap contract</tspan></text>
<text x="1165.0" y="758.0" text-anchor="middle" font-family="Inter,Arial,sans-serif" font-size="18" fill="#475569"><tspan x="1165.0" dy="0">terminated: zero</tspan><tspan x="1165.0" dy="22.5">truncated: bootstrap</tspan></text>
<rect x="1375" y="205" width="245" height="110" rx="12" fill="#fee2e2" stroke="#c92a2a" stroke-width="2.5" filter="url(#shadow)"/>
<text x="1497.5" y="242.5" text-anchor="middle" font-family="Inter,Arial,sans-serif" font-size="20" fill="#111827"><tspan x="1497.5" dy="0">Absolute value error</tspan></text>
<text x="1497.5" y="270.5" text-anchor="middle" font-family="Inter,Arial,sans-serif" font-size="18" fill="#475569"><tspan x="1497.5" dy="0">one |TD| per trained</tspan><tspan x="1497.5" dy="22.5">position</tspan></text>
<rect x="1375" y="405" width="245" height="135" rx="12" fill="#ffedd5" stroke="#d97706" stroke-width="2.5" filter="url(#shadow)"/>
<text x="1497.5" y="455.0" text-anchor="middle" font-family="Inter,Arial,sans-serif" font-size="20" fill="#111827"><tspan x="1497.5" dy="0">Sequence priority</tspan></text>
<text x="1497.5" y="483.0" text-anchor="middle" font-family="Inter,Arial,sans-serif" font-size="18" fill="#475569"><tspan x="1497.5" dy="0">p = 0.9 · max(|TD|) +</tspan><tspan x="1497.5" dy="22.5">0.1 · mean(|TD|)</tspan></text>
<rect x="1375" y="630" width="245" height="120" rx="12" fill="#dcfce7" stroke="#2b8a3e" stroke-width="2.5" filter="url(#shadow)"/>
<text x="1497.5" y="672.5" text-anchor="middle" font-family="Inter,Arial,sans-serif" font-size="20" fill="#111827"><tspan x="1497.5" dy="0">Sampling probability</tspan></text>
<text x="1497.5" y="700.5" text-anchor="middle" font-family="Inter,Arial,sans-serif" font-size="18" fill="#475569"><tspan x="1497.5" dy="0">p^alpha + optional</tspan><tspan x="1497.5" dy="22.5">uniform/elite mix</tspan></text>
<rect x="1375" y="760" width="245" height="110" rx="12" fill="#dbeafe" stroke="#1864ab" stroke-width="2.5" filter="url(#shadow)"/>
<text x="1497.5" y="787" text-anchor="middle" font-family="Inter,Arial,sans-serif" font-size="20" fill="#111827"><tspan x="1497.5" dy="0">Importance</tspan><tspan x="1497.5" dy="25.0">correction</tspan></text>
<text x="1497.5" y="840" text-anchor="middle" font-family="Inter,Arial,sans-serif" font-size="18" fill="#475569"><tspan x="1497.5" dy="0">w = (N · P)^−beta</tspan><tspan x="1497.5" dy="22.5">normalized by max</tspan></text>
<rect x="85" y="990" width="1530" height="62" rx="10" fill="#fee2e2" stroke="#c92a2a" stroke-width="1.5"/>
<text x="99" y="1021" text-anchor="start" font-family="Inter,Arial,sans-serif" font-size="18" fill="#1f2937"><tspan x="99" dy="0">Validated before training: n_step &lt; sequence_length, burn_in &lt; sequence_length, and sequence replay cannot be combined with a feature pipeline that</tspan><tspan x="99" dy="22.5">already stacks history.</tspan></text>
<rect x="85" y="1065" width="1530" height="70" rx="10" fill="#f1f5f9" stroke="#475569" stroke-width="1.5"/>
<text x="99" y="1096" text-anchor="start" font-family="Inter,Arial,sans-serif" font-size="18" fill="#1f2937"><tspan x="99" dy="0">Scope: R2D2-style recurrent replay. The package reconstructs episode-local histories and burn-in, but does not claim the complete distributed R2D2</tspan><tspan x="99" dy="22.5">system.</tspan></text>
</svg>
